<svg width="26" height="18" viewBox="0 0 26 18" fill="none" xmlns="http://www.w3.org/2000/svg">
<g clip-path="url(#clip0_2_26)">
<path d="M9.93414 17.7895C17.2106 17.7895 21.1898 11.664 21.1898 6.3522C21.1898 6.17824 21.1864 6.00507 21.1786 5.83262C21.9529 5.26334 22.6211 4.55847 23.152 3.75107C22.4431 4.07129 21.6804 4.28681 20.8802 4.38398C21.6969 3.88634 22.3239 3.09906 22.6198 2.16063C21.8432 2.62873 20.9937 2.95871 20.1078 3.13636C19.3859 2.35501 18.3581 1.86633 17.2201 1.86633C15.0355 1.86633 13.2639 3.66652 13.2639 5.88553C13.2639 6.201 13.2987 6.50776 13.3666 6.8021C10.0787 6.63399 7.16322 5.03444 5.21204 2.60222C4.86062 3.21567 4.67577 3.91287 4.67639 4.62263C4.67639 6.01725 5.37476 7.24839 6.43682 7.96867C5.8086 7.94917 5.19417 7.77675 4.64519 7.4659C4.6446 7.48278 4.6446 7.49922 4.6446 7.51725C4.6446 9.46397 6.0082 11.0894 7.81833 11.4577C7.47836 11.5517 7.12755 11.5993 6.77519 11.5991C6.52073 11.5991 6.27273 11.5737 6.03171 11.5267C6.53535 13.1238 7.99574 14.2861 9.72722 14.3186C8.37323 15.3969 6.66762 16.0392 4.81387 16.0392C4.49852 16.0395 4.18343 16.0209 3.87024 15.9835C5.62103 17.1238 7.69993 17.7892 9.93434 17.7892" fill="#03045E"/>
</g>
<defs>
<clipPath id="clip0_2_26">
<rect width="26" height="17.7895" fill="white"/>
</clipPath>
</defs>
</svg>
