<svg width="26" height="16" viewBox="0 0 26 16" fill="none" xmlns="http://www.w3.org/2000/svg">
<g clip-path="url(#clip0_2_39)">
<path d="M7.33281 0.0325928C11.3828 0.0325928 14.6656 3.38789 14.6656 7.52642C14.6656 11.6651 11.3825 15.02 7.33281 15.02C3.28331 15.02 0 11.6651 0 7.52642C0 3.38799 3.28301 0.0325928 7.33281 0.0325928ZM19.043 0.471526C21.0679 0.471526 22.7095 3.62983 22.7095 7.52642H22.7098C22.7098 11.4221 21.0682 14.5813 19.0434 14.5813C17.0185 14.5813 15.3769 11.4221 15.3769 7.52642C15.3769 3.63086 17.0181 0.471526 19.0431 0.471526H19.043ZM24.7105 1.20642C25.4225 1.20642 26 4.03598 26 7.52652C26 11.0159 25.4227 13.8466 24.7105 13.8466C23.9982 13.8466 23.4212 11.0168 23.4212 7.52652C23.4212 4.03619 23.9985 1.20642 24.7105 1.20642Z" fill="#03045E"/>
</g>
<defs>
<clipPath id="clip0_2_39">
<rect width="26" height="15.0526" fill="white"/>
</clipPath>
</defs>
</svg>
